<svg width="156" height="52" viewBox="0 0 156 52" fill="none" xmlns="http://www.w3.org/2000/svg">
<rect x="0.65" y="0.65" width="154.7" height="50.7" rx="7.15" fill="black"/>
<rect x="0.65" y="0.65" width="154.7" height="50.7" rx="7.15" stroke="#A6A6A6" stroke-width="1.3"/>
<path d="M23.1463 25.3002L10.5165 39.0077C10.5177 39.0101 10.5177 39.0137 10.5189 39.0162C10.9067 40.5046 12.2353 41.6 13.813 41.6C14.4441 41.6 15.036 41.4253 15.5437 41.1196L15.5841 41.0953L29.7998 32.7071L23.1463 25.3002Z" fill="#EA4335"/>
<path d="M35.923 22.9661L35.9112 22.9576L29.7736 19.3196L22.8591 25.6117L29.7985 32.7057L35.9029 29.1041C36.9728 28.5122 37.7 27.3585 37.7 26.029C37.7 24.7068 36.9835 23.5593 35.923 22.9661Z" fill="#FBBC04"/>
<path d="M10.5162 12.9913C10.4403 13.2776 10.4 13.5784 10.4 13.889V38.1112C10.4 38.4218 10.4403 38.7226 10.5174 39.0077L23.5802 25.6507L10.5162 12.9913Z" fill="#4285F4"/>
<path d="M23.2395 25.9999L29.7757 19.3172L15.5765 10.8986C15.0605 10.582 14.4579 10.4001 13.8138 10.4001C12.2361 10.4001 10.9051 11.4979 10.5172 12.9875C10.5172 12.9887 10.516 12.9899 10.516 12.9911L23.2395 25.9999Z" fill="#34A853"/>
<path d="M58.1625 14.3875C58.1625 15.6375 57.7917 16.6333 57.05 17.375C56.2167 18.2583 55.1208 18.7 53.7625 18.7C52.4625 18.7 51.3625 18.25 50.4625 17.35C49.5625 16.45 49.1125 15.3417 49.1125 14.025C49.1125 12.7083 49.5625 11.6 50.4625 10.7C51.3625 9.8 52.4625 9.35 53.7625 9.35C54.4208 9.35 55.0417 9.46667 55.625 9.7C56.2083 9.93333 56.6875 10.2625 57.0625 10.6875L56.2375 11.5125C55.9625 11.1792 55.6042 10.9208 55.1625 10.7375C54.7292 10.5458 54.2625 10.45 53.7625 10.45C52.7875 10.45 51.9625 10.7875 51.2875 11.4625C50.6208 12.1458 50.2875 13 50.2875 14.025C50.2875 15.05 50.6208 15.9042 51.2875 16.5875C51.9625 17.2625 52.7875 17.6 53.7625 17.6C54.6542 17.6 55.3958 17.35 55.9875 16.85C56.5792 16.35 56.9208 15.6625 57.0125 14.7875H53.7625V13.7125H58.1C58.1417 13.9458 58.1625 14.1708 58.1625 14.3875ZM64.7848 9.55V10.65H60.7098V13.4875H64.3848V14.5625H60.7098V17.4H64.7848V18.5H59.5598V9.55H64.7848ZM69.3847 10.65V18.5H68.2347V10.65H65.7347V9.55H71.8847V10.65H69.3847ZM76.9817 18.5H75.8317V9.55H76.9817V18.5ZM81.8358 10.65V18.5H80.6858V10.65H78.1858V9.55H84.3358V10.65H81.8358ZM96.8013 14.025C96.8013 15.35 96.3596 16.4583 95.4763 17.35C94.5846 18.25 93.4929 18.7 92.2013 18.7C90.9013 18.7 89.8096 18.25 88.9263 17.35C88.0429 16.4583 87.6013 15.35 87.6013 14.025C87.6013 12.7 88.0429 11.5917 88.9263 10.7C89.8096 9.8 90.9013 9.35 92.2013 9.35C93.5013 9.35 94.5929 9.80417 95.4763 10.7125C96.3596 11.6042 96.8013 12.7083 96.8013 14.025ZM88.7763 14.025C88.7763 15.0583 89.1013 15.9125 89.7513 16.5875C90.4096 17.2625 91.2263 17.6 92.2013 17.6C93.1763 17.6 93.9888 17.2625 94.6388 16.5875C95.2971 15.9208 95.6263 15.0667 95.6263 14.025C95.6263 12.9833 95.2971 12.1292 94.6388 11.4625C93.9888 10.7875 93.1763 10.45 92.2013 10.45C91.2263 10.45 90.4096 10.7875 89.7513 11.4625C89.1013 12.1375 88.7763 12.9917 88.7763 14.025ZM99.3084 18.5H98.1584V9.55H99.5584L103.908 16.5125H103.958L103.908 14.7875V9.55H105.058V18.5H103.858L99.3084 11.2H99.2584L99.3084 12.925V18.5Z" fill="white"/>
<path d="M121.574 37.2326H123.691V22.9176H121.574V37.2326ZM140.645 28.074L138.218 34.2805H138.146L135.626 28.074H133.346L137.123 36.7482L134.97 41.5737H137.178L143 28.074H140.645ZM128.637 35.6065C127.943 35.6065 126.976 35.2573 126.976 34.3904C126.976 33.2865 128.18 32.8629 129.221 32.8629C130.151 32.8629 130.59 33.0655 131.155 33.3415C130.991 34.6675 129.86 35.6065 128.637 35.6065ZM128.893 27.7614C127.36 27.7614 125.771 28.4427 125.115 29.9531L126.994 30.7444C127.396 29.9531 128.144 29.6943 128.929 29.6943C130.024 29.6943 131.137 30.3574 131.155 31.5368V31.6834C130.772 31.4624 129.951 31.1315 128.947 31.1315C126.922 31.1315 124.859 32.2548 124.859 34.3538C124.859 36.2695 126.52 37.504 128.381 37.504C129.805 37.504 130.59 36.8593 131.083 36.1035H131.155V37.2085H133.199V31.72C133.199 29.179 131.32 27.7614 128.893 27.7614ZM115.807 29.8169H112.795V24.9101H115.807C117.39 24.9101 118.288 26.2327 118.288 27.3629C118.288 28.4725 117.39 29.8169 115.807 29.8169ZM115.752 22.9176H110.679V37.2326H112.795V31.8094H115.752C118.099 31.8094 120.406 30.094 120.406 27.3629C120.406 24.6318 118.099 22.9176 115.752 22.9176ZM88.0858 35.6088C86.6231 35.6088 85.3987 34.3732 85.3987 32.6762C85.3987 30.9608 86.6231 29.7058 88.0858 29.7058C89.5303 29.7058 90.6628 30.9608 90.6628 32.6762C90.6628 34.3732 89.5303 35.6088 88.0858 35.6088ZM90.5176 28.8756H90.4438C89.9684 28.3042 89.0549 27.7877 87.9031 27.7877C85.4895 27.7877 83.2778 29.9268 83.2778 32.6762C83.2778 35.4061 85.4895 37.528 87.9031 37.528C89.0549 37.528 89.9684 37.0116 90.4438 36.4207H90.5176V37.1226C90.5176 38.9857 89.5303 39.982 87.9394 39.982C86.6413 39.982 85.8367 39.0407 85.5076 38.2471L83.6614 39.0224C84.1913 40.3141 85.5995 41.9 87.9394 41.9C90.4257 41.9 92.5284 40.424 92.5284 36.8272V28.082H90.5176V28.8756ZM93.9911 37.2326H96.1119V22.9165H93.9911V37.2326ZM99.237 32.5102C99.1826 30.6287 100.682 29.6692 101.76 29.6692C102.602 29.6692 103.314 30.0928 103.551 30.702L99.237 32.5102ZM105.819 30.8864C105.417 29.7985 104.191 27.7877 101.687 27.7877C99.2007 27.7877 97.1355 29.7608 97.1355 32.6579C97.1355 35.3878 99.1826 37.528 101.924 37.528C104.137 37.528 105.417 36.163 105.947 35.3695L104.301 34.2622C103.753 35.0741 103.003 35.6088 101.924 35.6088C100.846 35.6088 100.078 35.1107 99.5843 34.1339L106.038 31.4395L105.819 30.8864ZM54.4051 29.2821V31.3479H59.3039C59.1575 32.5102 58.7739 33.3587 58.1895 33.9484C57.4758 34.6687 56.3603 35.4622 54.4051 35.4622C51.3878 35.4622 49.0298 33.0083 49.0298 29.9646C49.0298 26.9198 51.3878 24.4669 54.4051 24.4669C56.0324 24.4669 57.2205 25.1128 58.0976 25.943L59.5422 24.4853C58.3166 23.3047 56.6905 22.4 54.4051 22.4C50.2735 22.4 46.8 25.7953 46.8 29.9646C46.8 34.1339 50.2735 37.528 54.4051 37.528C56.6349 37.528 58.3166 36.7894 59.633 35.4061C60.9867 34.0412 61.4066 32.1231 61.4066 30.5726C61.4066 30.0928 61.3703 29.6508 61.2965 29.2821H54.4051ZM66.9771 35.6088C65.5144 35.6088 64.2525 34.3916 64.2525 32.6579C64.2525 30.9047 65.5144 29.7058 66.9771 29.7058C68.4386 29.7058 69.7005 30.9047 69.7005 32.6579C69.7005 34.3916 68.4386 35.6088 66.9771 35.6088ZM66.9771 27.7877C64.307 27.7877 62.1317 29.8352 62.1317 32.6579C62.1317 35.4622 64.307 37.528 66.9771 37.528C69.646 37.528 71.8214 35.4622 71.8214 32.6579C71.8214 29.8352 69.646 27.7877 66.9771 27.7877ZM77.5451 35.6088C76.0824 35.6088 74.8205 34.3916 74.8205 32.6579C74.8205 30.9047 76.0824 29.7058 77.5451 29.7058C79.0078 29.7058 80.2685 30.9047 80.2685 32.6579C80.2685 34.3916 79.0078 35.6088 77.5451 35.6088ZM77.5451 27.7877C74.8761 27.7877 72.7008 29.8352 72.7008 32.6579C72.7008 35.4622 74.8761 37.528 77.5451 37.528C80.214 37.528 82.3893 35.4622 82.3893 32.6579C82.3893 29.8352 80.214 27.7877 77.5451 27.7877Z" fill="white"/>
</svg>
