<svg width="156" height="52" viewBox="0 0 156 52" fill="none" xmlns="http://www.w3.org/2000/svg">
<rect x="0.65" y="0.65" width="154.7" height="50.7" rx="7.15" fill="black"/>
<rect x="0.65" y="0.65" width="154.7" height="50.7" rx="7.15" stroke="#A6A6A6" stroke-width="1.3"/>
<path d="M32.1158 26.9921C32.1316 25.7962 32.457 24.6236 33.0617 23.5835C33.6663 22.5434 34.5307 21.6695 35.5742 21.0431C34.9113 20.1188 34.0367 19.358 33.0199 18.8214C32.0032 18.2847 30.8723 17.9869 29.717 17.9517C27.2526 17.6991 24.8635 19.3914 23.6077 19.3914C22.3276 19.3914 20.3941 17.9767 18.312 18.0186C16.9653 18.061 15.6528 18.4434 14.5024 19.1283C13.352 19.8133 12.403 20.7775 11.7477 21.927C8.90957 26.7245 11.0266 33.7752 13.7454 37.6532C15.1057 39.5521 16.6954 41.6733 18.7756 41.598C20.8112 41.5156 21.5715 40.3308 24.0286 40.3308C26.4629 40.3308 27.1762 41.598 29.2986 41.5502C31.4829 41.5156 32.8591 39.6429 34.1716 37.7259C35.149 36.3729 35.9011 34.8775 36.4 33.2951C35.131 32.7711 34.048 31.894 33.2862 30.7731C32.5244 29.6523 32.1173 28.3373 32.1158 26.9921Z" fill="white"/>
<path d="M28.107 15.4013C29.298 14.0055 29.8848 12.2114 29.7427 10.4C27.9232 10.5866 26.2424 11.4356 25.0354 12.7779C24.4452 13.4336 23.9932 14.1965 23.7052 15.0228C23.4172 15.8492 23.2989 16.7229 23.3569 17.594C24.267 17.6031 25.1674 17.4105 25.9902 17.0307C26.813 16.6509 27.5368 16.0938 28.107 15.4013Z" fill="white"/>
<path d="M49.7388 15.0018H52.326C54.5618 15.0018 55.6494 16.3312 55.6494 18.7427C55.6494 21.1542 54.5508 22.5 52.326 22.5H49.7388V15.0018ZM50.9857 16.051V21.4508H52.1887C53.6719 21.4508 54.3695 20.5554 54.3695 18.7592C54.3695 16.9519 53.6664 16.051 52.1887 16.051H50.9857ZM59.5935 16.5948C61.1096 16.5948 62.1698 17.5781 62.1698 19.2096V19.9622C62.1698 21.6486 61.1096 22.5989 59.5935 22.5989C58.0554 22.5989 57.0062 21.6595 57.0062 19.9677V19.2151C57.0062 17.6276 58.0719 16.5948 59.5935 16.5948ZM59.599 17.5781C58.7311 17.5781 58.2367 18.3032 58.2367 19.2755V19.9237C58.2367 20.896 58.6981 21.6156 59.599 21.6156C60.4889 21.6156 60.9448 20.9015 60.9448 19.9237V19.2755C60.9448 18.3032 60.4669 17.5781 59.599 17.5781ZM71.1237 16.6937L69.5966 22.5H68.3551L67.1411 18.2153H67.1082L65.9161 22.5H64.6692L63.0762 16.6937H64.389L65.3229 21.1212H65.3778L66.5479 16.6937H67.6959L68.8989 21.1212H68.9539L69.9042 16.6937H71.1237ZM72.3322 22.5V16.6937H73.5297V17.7374H73.5901C73.7384 17.2815 74.1614 16.6058 75.3369 16.6058C76.507 16.6058 77.2925 17.254 77.2925 18.5779V22.5H76.073V18.9349C76.073 18.0505 75.6116 17.644 74.9249 17.644C74.024 17.644 73.5516 18.3362 73.5516 19.2755V22.5H72.3322ZM79.1382 22.5V14.6063H80.3577V22.5H79.1382ZM84.5435 16.5948C86.0596 16.5948 87.1198 17.5781 87.1198 19.2096V19.9622C87.1198 21.6486 86.0596 22.5989 84.5435 22.5989C83.0054 22.5989 81.9562 21.6595 81.9562 19.9677V19.2151C81.9562 17.6276 83.0219 16.5948 84.5435 16.5948ZM84.549 17.5781C83.681 17.5781 83.1866 18.3032 83.1866 19.2755V19.9237C83.1866 20.896 83.6481 21.6156 84.549 21.6156C85.4388 21.6156 85.8948 20.9015 85.8948 19.9237V19.2755C85.8948 18.3032 85.4169 17.5781 84.549 17.5781ZM90.2783 22.5879C89.1522 22.5879 88.3777 21.8958 88.3777 20.8136C88.3777 19.7864 89.0918 19.0942 90.4321 19.0942H91.8988V18.5504C91.8988 17.8857 91.4758 17.5726 90.8057 17.5726C90.1465 17.5726 89.8499 17.8473 89.7565 18.2318H88.5974C88.6688 17.2595 89.3994 16.6058 90.8441 16.6058C92.0856 16.6058 93.1128 17.1222 93.1128 18.5669V22.5H91.9537V21.7474H91.8988C91.6406 22.1924 91.1353 22.5879 90.2783 22.5879ZM90.6573 21.6431C91.3495 21.6431 91.8988 21.1707 91.8988 20.5389V19.9127H90.6244C89.9158 19.9127 89.6027 20.2698 89.6027 20.7532C89.6027 21.3574 90.108 21.6431 90.6573 21.6431ZM96.8701 16.6168C97.6886 16.6168 98.3148 16.9794 98.54 17.5671H98.6005V14.6063H99.8199V22.5H98.6334V21.5717H98.573C98.3972 22.1594 97.6996 22.5769 96.8536 22.5769C95.5188 22.5769 94.6509 21.6266 94.6509 20.094V19.0997C94.6509 17.5671 95.5353 16.6168 96.8701 16.6168ZM97.2107 17.6166C96.3977 17.6166 95.8923 18.2208 95.8923 19.2755V19.9127C95.8923 20.9729 96.4032 21.5771 97.2382 21.5771C98.0621 21.5771 98.6005 20.9784 98.6005 19.9896V19.1107C98.6005 18.2153 98.0127 17.6166 97.2107 17.6166ZM106.516 16.5948C108.032 16.5948 109.092 17.5781 109.092 19.2096V19.9622C109.092 21.6486 108.032 22.5989 106.516 22.5989C104.978 22.5989 103.929 21.6595 103.929 19.9677V19.2151C103.929 17.6276 104.995 16.5948 106.516 16.5948ZM106.522 17.5781C105.654 17.5781 105.159 18.3032 105.159 19.2755V19.9237C105.159 20.896 105.621 21.6156 106.522 21.6156C107.411 21.6156 107.867 20.9015 107.867 19.9237V19.2755C107.867 18.3032 107.39 17.5781 106.522 17.5781ZM110.663 22.5V16.6937H111.861V17.7374H111.921C112.07 17.2815 112.493 16.6058 113.668 16.6058C114.838 16.6058 115.624 17.254 115.624 18.5779V22.5H114.404V18.9349C114.404 18.0505 113.943 17.644 113.256 17.644C112.355 17.644 111.883 18.3362 111.883 19.2755V22.5H110.663ZM120.342 16.7322V15.282H121.534V16.7322H122.836V17.688H121.534V20.7697C121.534 21.4014 121.771 21.5771 122.424 21.5771C122.589 21.5771 122.809 21.5662 122.902 21.5552V22.489C122.803 22.5055 122.397 22.5385 122.122 22.5385C120.71 22.5385 120.326 22.0331 120.326 20.8685V17.688H119.442V16.7322H120.342ZM124.374 22.5V14.6063H125.588V17.7374H125.649C125.775 17.3254 126.248 16.6058 127.412 16.6058C128.544 16.6058 129.351 17.2595 129.351 18.5834V22.5H128.137V18.9404C128.137 18.056 127.648 17.644 126.956 17.644C126.083 17.644 125.588 18.3307 125.588 19.2755V22.5H124.374ZM133.444 22.5989C131.862 22.5989 130.878 21.6266 130.878 19.9896V19.2041C130.878 17.5562 131.955 16.5948 133.372 16.5948C134.828 16.5948 135.855 17.6056 135.855 19.2041V19.8853H132.087V20.1709C132.087 21.0059 132.581 21.6211 133.438 21.6211C134.075 21.6211 134.515 21.319 134.597 20.9564H135.789C135.718 21.6266 135.009 22.5989 133.444 22.5989ZM132.087 19.0887H134.663V19.0118C134.663 18.1384 134.152 17.5562 133.378 17.5562C132.603 17.5562 132.087 18.1384 132.087 19.0118V19.0887Z" fill="white"/>
<path d="M51.5076 40.5H48.9697L54.1333 25.5037H56.9238L62.0764 40.5H59.4397L58.1104 36.3472H52.8479L51.5076 40.5ZM55.5396 28.0964H55.4407L53.4082 34.4355H57.55L55.5396 28.0964ZM69.0805 40.6648C67.5753 40.6648 66.4328 39.9507 65.8175 38.885H65.7296V44.3562H63.2907V28.8875H65.6637V30.5903H65.7516C66.3888 29.4807 67.5753 28.7336 69.1354 28.7336C71.7392 28.7336 73.5958 30.7002 73.5958 34.1719V35.2046C73.5958 38.6543 71.7611 40.6648 69.0805 40.6648ZM68.5202 38.6543C70.0692 38.6543 71.1239 37.4128 71.1239 35.0728V34.2598C71.1239 32.0076 70.1352 30.7222 68.4762 30.7222C66.7733 30.7222 65.7077 32.1064 65.7077 34.2488V35.0728C65.7077 37.27 66.7843 38.6543 68.5202 38.6543ZM81.4788 40.6648C79.9737 40.6648 78.8311 39.9507 78.2159 38.885H78.128V44.3562H75.689V28.8875H78.0621V30.5903H78.15C78.7872 29.4807 79.9737 28.7336 81.5337 28.7336C84.1375 28.7336 85.9942 30.7002 85.9942 34.1719V35.2046C85.9942 38.6543 84.1595 40.6648 81.4788 40.6648ZM80.9185 38.6543C82.4676 38.6543 83.5223 37.4128 83.5223 35.0728V34.2598C83.5223 32.0076 82.5335 30.7222 80.8746 30.7222C79.1717 30.7222 78.106 32.1064 78.106 34.2488V35.0728C78.106 37.27 79.1827 38.6543 80.9185 38.6543ZM91.0484 36.3362H93.4874C93.5973 37.6326 94.7398 38.7422 96.8602 38.7422C98.8048 38.7422 99.9583 37.8303 99.9583 36.4131C99.9583 35.2705 99.1893 34.6553 97.5853 34.2708L95.1244 33.6555C93.1908 33.2051 91.4549 32.0515 91.4549 29.6125C91.4549 26.7451 93.9598 25.1741 96.8712 25.1741C99.7826 25.1741 102.211 26.7451 102.265 29.5466H99.8705C99.7606 28.2722 98.7828 27.2175 96.8382 27.2175C95.1244 27.2175 93.9598 28.0305 93.9598 29.4258C93.9598 30.4036 94.641 31.1067 96.0362 31.4253L98.4862 32.0295C100.738 32.5789 102.452 33.6445 102.452 36.1934C102.452 39.1377 100.068 40.7966 96.6734 40.7966C92.4986 40.7966 91.1034 38.3577 91.0484 36.3362ZM105.424 28.8875V26.064H107.819V28.8875H110.083V30.843H107.819V37.0393C107.819 38.3027 108.292 38.6543 109.599 38.6543C109.808 38.6543 110.006 38.6543 110.148 38.6323V40.5C109.951 40.533 109.489 40.5769 108.995 40.5769C106.171 40.5769 105.391 39.5662 105.391 37.2371V30.843H103.787V28.8875H105.424ZM116.669 28.6897C120.009 28.6897 121.822 31.0408 121.822 34.2048V35.1387C121.822 38.4126 120.02 40.6978 116.669 40.6978C113.318 40.6978 111.495 38.4126 111.495 35.1387V34.2048C111.495 31.0518 113.329 28.6897 116.669 28.6897ZM116.669 30.6453C114.856 30.6453 113.955 32.1284 113.955 34.2378V35.1277C113.955 37.2041 114.845 38.7312 116.669 38.7312C118.493 38.7312 119.372 37.2151 119.372 35.1277V34.2378C119.372 32.1174 118.482 30.6453 116.669 30.6453ZM123.882 40.5V28.8875H126.321V30.4146H126.409C126.705 29.6895 127.573 28.7227 129.188 28.7227C129.507 28.7227 129.782 28.7446 130.012 28.7886V30.9419C129.804 30.887 129.375 30.854 128.969 30.854C127.013 30.854 126.354 32.0625 126.354 33.6226V40.5H123.882ZM135.929 40.6978C132.82 40.6978 130.842 38.6433 130.842 35.2046V34.0291C130.842 30.7881 132.776 28.6897 135.83 28.6897C138.928 28.6897 140.796 30.865 140.796 34.1389V35.2485H133.248V35.5232C133.248 37.4788 134.303 38.7751 135.962 38.7751C137.203 38.7751 138.049 38.1599 138.346 37.1602H140.664C140.312 39.0388 138.796 40.6978 135.929 40.6978ZM133.248 33.5457H138.412V33.5237C138.412 31.8757 137.39 30.5793 135.841 30.5793C134.27 30.5793 133.248 31.8757 133.248 33.5237V33.5457Z" fill="white"/>
</svg>
