<svg width="20" height="21" viewBox="0 0 20 21" fill="none" xmlns="http://www.w3.org/2000/svg">
<path d="M14.427 2.16675H5.57288C3.41551 2.16675 1.66663 3.91564 1.66663 6.073V14.9272C1.66663 17.0845 3.41551 18.8334 5.57288 18.8334H14.427C16.5844 18.8334 18.3333 17.0845 18.3333 14.9272V6.073C18.3333 3.91564 16.5844 2.16675 14.427 2.16675Z" fill="url(#paint0_radial_104_992)"/>
<path d="M14.427 2.16675H5.57288C3.41551 2.16675 1.66663 3.91564 1.66663 6.073V14.9272C1.66663 17.0845 3.41551 18.8334 5.57288 18.8334H14.427C16.5844 18.8334 18.3333 17.0845 18.3333 14.9272V6.073C18.3333 3.91564 16.5844 2.16675 14.427 2.16675Z" fill="url(#paint1_radial_104_992)"/>
<path d="M10.0006 3.9895C8.23253 3.9895 8.01059 3.99725 7.31619 4.02882C6.62309 4.0606 6.14997 4.1703 5.73604 4.3313C5.30779 4.49757 4.94457 4.72004 4.58272 5.08201C4.22055 5.44393 3.99809 5.80714 3.83129 6.2352C3.66983 6.64927 3.56 7.12257 3.52882 7.81535C3.49776 8.50981 3.48962 8.73182 3.48962 10.5C3.48962 12.2681 3.49744 12.4894 3.52895 13.1838C3.56085 13.8769 3.67055 14.35 3.83142 14.7639C3.99783 15.1922 4.22029 15.5554 4.58227 15.9172C4.94405 16.2794 5.30727 16.5024 5.7352 16.6687C6.14945 16.8297 6.62263 16.9394 7.3156 16.9711C8.01007 17.0027 8.23181 17.0105 9.99984 17.0105C11.7681 17.0105 11.9894 17.0027 12.6838 16.9711C13.3769 16.9394 13.8505 16.8297 14.2648 16.6687C14.6928 16.5024 15.0555 16.2794 15.4172 15.9172C15.7794 15.5554 16.0018 15.1922 16.1687 14.7641C16.3287 14.35 16.4386 13.8767 16.4711 13.1839C16.5023 12.4895 16.5105 12.2681 16.5105 10.5C16.5105 8.73182 16.5023 8.50994 16.4711 7.81548C16.4386 7.12238 16.3287 6.64933 16.1687 6.2354C16.0018 5.80714 15.7794 5.44393 15.4172 5.08201C15.0551 4.71991 14.6929 4.49744 14.2644 4.33136C13.8493 4.1703 13.3759 4.06053 12.6828 4.02882C11.9884 3.99725 11.7673 3.9895 9.99861 3.9895H10.0006ZM9.41658 5.16274C9.58995 5.16248 9.78337 5.16274 10.0006 5.16274C11.739 5.16274 11.945 5.16899 12.6314 5.20018C13.2662 5.22922 13.6107 5.33527 13.8402 5.4244C14.144 5.54237 14.3607 5.68345 14.5884 5.91138C14.8162 6.13924 14.9573 6.35623 15.0756 6.66007C15.1647 6.88924 15.2709 7.23377 15.2998 7.86854C15.331 8.55487 15.3377 8.76099 15.3377 10.4985C15.3377 12.236 15.331 12.4422 15.2998 13.1284C15.2707 13.7632 15.1647 14.1077 15.0756 14.337C14.9576 14.6408 14.8162 14.8571 14.5884 15.0849C14.3605 15.3127 14.1442 15.4538 13.8402 15.5718C13.611 15.6613 13.2662 15.7671 12.6314 15.7961C11.9451 15.8273 11.739 15.8341 10.0006 15.8341C8.26221 15.8341 8.05616 15.8273 7.3699 15.7961C6.73513 15.7668 6.3906 15.6608 6.16091 15.5717C5.85714 15.4536 5.64008 15.3126 5.41221 15.0847C5.18435 14.8569 5.04333 14.6404 4.92504 14.3364C4.83591 14.1072 4.72973 13.7627 4.70082 13.1279C4.66964 12.4416 4.66339 12.2355 4.66339 10.4969C4.66339 8.75832 4.66964 8.55324 4.70082 7.86691C4.72986 7.23214 4.83591 6.88761 4.92504 6.65812C5.04307 6.35428 5.18435 6.13729 5.41228 5.90942C5.64014 5.68156 5.85714 5.54048 6.16098 5.42225C6.39047 5.33273 6.73513 5.22694 7.3699 5.19777C7.97048 5.17062 8.20323 5.16248 9.41658 5.16112V5.16274ZM13.4759 6.24373C13.0446 6.24373 12.6946 6.59334 12.6946 7.02472C12.6946 7.45604 13.0446 7.80597 13.4759 7.80597C13.9072 7.80597 14.2571 7.45604 14.2571 7.02472C14.2571 6.59341 13.9072 6.24347 13.4759 6.24347V6.24373ZM10.0006 7.15656C8.15427 7.15656 6.65727 8.65356 6.65727 10.5C6.65727 12.3464 8.15427 13.8427 10.0006 13.8427C11.847 13.8427 13.3435 12.3464 13.3435 10.5C13.3435 8.65363 11.8469 7.15656 10.0005 7.15656H10.0006ZM10.0006 8.3298C11.1991 8.3298 12.1708 9.30135 12.1708 10.5C12.1708 11.6985 11.1991 12.6702 10.0006 12.6702C8.80206 12.6702 7.83051 11.6985 7.83051 10.5C7.83051 9.30135 8.80206 8.3298 10.0006 8.3298Z" fill="white"/>
<defs>
<radialGradient id="paint0_radial_104_992" cx="0" cy="0" r="1" gradientUnits="userSpaceOnUse" gradientTransform="translate(6.09371 20.1171) rotate(-90) scale(16.5179 15.363)">
<stop stop-color="#FFDD55"/>
<stop offset="0.1" stop-color="#FFDD55"/>
<stop offset="0.5" stop-color="#FF543E"/>
<stop offset="1" stop-color="#C837AB"/>
</radialGradient>
<radialGradient id="paint1_radial_104_992" cx="0" cy="0" r="1" gradientUnits="userSpaceOnUse" gradientTransform="translate(-1.12511 3.36733) rotate(78.681) scale(7.38359 30.4354)">
<stop stop-color="#3771C8"/>
<stop offset="0.128" stop-color="#3771C8"/>
<stop offset="1" stop-color="#6600FF" stop-opacity="0"/>
</radialGradient>
</defs>
</svg>
