<svg width="20" height="21" viewBox="0 0 20 21" fill="none" xmlns="http://www.w3.org/2000/svg">
<path d="M14.427 2.16675H5.57288C3.41551 2.16675 1.66663 3.91564 1.66663 6.073V14.9272C1.66663 17.0845 3.41551 18.8334 5.57288 18.8334H14.427C16.5844 18.8334 18.3333 17.0845 18.3333 14.9272V6.073C18.3333 3.91564 16.5844 2.16675 14.427 2.16675Z" fill="white"/>
<path d="M14.427 2.16675H5.57288C3.41551 2.16675 1.66663 3.91564 1.66663 6.073V14.9272C1.66663 17.0845 3.41551 18.8334 5.57288 18.8334H14.427C16.5844 18.8334 18.3333 17.0845 18.3333 14.9272V6.073C18.3333 3.91564 16.5844 2.16675 14.427 2.16675Z" fill="#0A66C2"/>
<path d="M13.6924 16.3389H15.598C15.667 16.3389 15.7333 16.3114 15.7821 16.2626C15.8309 16.2138 15.8584 16.1476 15.8584 16.0785L15.8594 12.0523C15.8594 9.94798 15.4059 8.33047 12.9467 8.33047C12.0119 8.2957 11.1303 8.7776 10.6546 9.58229C10.6523 9.5862 10.6488 9.58924 10.6445 9.59095C10.6403 9.59266 10.6357 9.59294 10.6313 9.59175C10.6269 9.59056 10.623 9.58797 10.6202 9.58437C10.6174 9.58077 10.6159 9.57636 10.6159 9.57181V8.78516C10.6159 8.71609 10.5884 8.64985 10.5396 8.60101C10.4908 8.55218 10.4245 8.52474 10.3555 8.52474H8.54707C8.478 8.52474 8.41176 8.55218 8.36293 8.60101C8.31409 8.64985 8.28665 8.71609 8.28665 8.78516V16.0781C8.28665 16.1472 8.31409 16.2134 8.36293 16.2623C8.41176 16.3111 8.478 16.3385 8.54707 16.3385H10.4525C10.5216 16.3385 10.5878 16.3111 10.6367 16.2623C10.6855 16.2134 10.713 16.1472 10.713 16.0781V12.4731C10.713 11.4538 10.9063 10.4666 12.17 10.4666C13.4158 10.4666 13.432 11.633 13.432 12.5391V16.0784C13.432 16.1475 13.4594 16.2138 13.5082 16.2626C13.5571 16.3114 13.6233 16.3389 13.6924 16.3389ZM4.14062 6.04863C4.14062 6.82109 4.7765 7.45664 5.54896 7.45664C6.32122 7.45657 6.9567 6.82064 6.9567 6.04837C6.95657 5.27611 6.32103 4.64062 5.5487 4.64062C4.77617 4.64062 4.14062 5.27624 4.14062 6.04863ZM4.59368 16.3389H6.50169C6.57076 16.3389 6.637 16.3114 6.68583 16.2626C6.73467 16.2138 6.76211 16.1475 6.76211 16.0784V8.78516C6.76211 8.71609 6.73467 8.64985 6.68583 8.60101C6.637 8.55218 6.57076 8.52474 6.50169 8.52474H4.59368C4.52462 8.52474 4.45838 8.55218 4.40954 8.60101C4.3607 8.64985 4.33327 8.71609 4.33327 8.78516V16.0784C4.33327 16.1475 4.3607 16.2138 4.40954 16.2626C4.45838 16.3114 4.52462 16.3389 4.59368 16.3389Z" fill="white"/>
</svg>
