<svg width="20" height="21" viewBox="0 0 20 21" fill="none" xmlns="http://www.w3.org/2000/svg">
<g clip-path="url(#clip0_104_998)">
<path d="M13.8664 8.35281C14.9398 9.11976 16.2549 9.57103 17.6752 9.57103V6.83942C17.4063 6.83952 17.1382 6.81148 16.8753 6.75574V8.90591C15.4551 8.90591 14.1402 8.45471 13.0665 7.68781V13.2623C13.0665 16.051 10.8047 18.3114 8.01481 18.3114C6.97384 18.3114 6.00625 17.9969 5.20251 17.4574C6.11987 18.3949 7.39918 18.9765 8.81447 18.9765C11.6046 18.9765 13.8665 16.716 13.8665 13.9272V8.35281H13.8664ZM14.8531 5.59695C14.3045 4.99792 13.9443 4.22379 13.8664 3.36792V3.0166H13.1084C13.2992 4.10436 13.95 5.03367 14.8531 5.59695ZM6.96711 15.3175C6.66058 14.9159 6.4949 14.4245 6.49568 13.9192C6.49568 12.6438 7.53022 11.6097 8.8066 11.6097C9.04442 11.6096 9.28086 11.6461 9.50757 11.7179V8.92522C9.24263 8.88896 8.97527 8.8735 8.70803 8.87919V11.0529C8.4812 10.981 8.24465 10.9445 8.00671 10.9447C6.73039 10.9447 5.69591 11.9787 5.69591 13.2543C5.69591 14.1563 6.21297 14.9371 6.96711 15.3175Z" fill="#FF004F"/>
<path d="M13.0666 7.68775C14.1403 8.45465 15.4551 8.90585 16.8753 8.90585V6.75568C16.0826 6.58689 15.3808 6.17287 14.8532 5.59695C13.95 5.03361 13.2993 4.1043 13.1085 3.0166H11.1175V13.9271C11.1129 15.1991 10.0802 16.229 8.80655 16.229C8.05609 16.229 7.38931 15.8714 6.96707 15.3175C6.21305 14.9371 5.69592 14.1562 5.69592 13.2544C5.69592 11.9789 6.7304 10.9448 8.00673 10.9448C8.25127 10.9448 8.48696 10.9828 8.70805 11.0529V8.87924C5.96713 8.93585 3.76282 11.1742 3.76282 13.9272C3.76282 15.3014 4.31173 16.5472 5.20265 17.4575C6.00638 17.9969 6.97391 18.3115 8.01494 18.3115C10.8049 18.3115 13.0667 16.0509 13.0667 13.2623L13.0666 7.68775Z" fill="black"/>
<path d="M16.8752 6.75583V6.17457C16.1604 6.1756 15.4596 5.97551 14.8531 5.59715C15.39 6.18463 16.0969 6.58976 16.8752 6.75594M13.1083 3.01675C13.0901 2.91282 13.0762 2.80819 13.0665 2.70313V2.35181H10.3174V13.2624C10.313 14.5343 9.28025 15.5642 8.00657 15.5642C7.64549 15.5647 7.28935 15.4803 6.96691 15.3178C7.38915 15.8716 8.05594 16.2291 8.8064 16.2291C10.08 16.2291 11.1128 15.1993 11.1173 13.9274V3.01681L13.1083 3.01675ZM8.70806 8.87939V8.26048C8.47834 8.22912 8.24675 8.21342 8.0149 8.21347C5.22467 8.21347 2.96289 10.474 2.96289 13.2624C2.96289 15.0107 3.8518 16.5513 5.2026 17.4576C4.31168 16.5474 3.76278 15.3015 3.76278 13.9273C3.76278 11.1744 5.96703 8.936 8.70806 8.87939Z" fill="#00F2EA"/>
</g>
<defs>
<clipPath id="clip0_104_998">
<rect width="14.7126" height="16.6667" fill="white" transform="translate(2.96289 2.35181)"/>
</clipPath>
</defs>
</svg>
